<?xml version="1.0" encoding="UTF-8"?>
<svg width="480px" height="140px" viewBox="0 0 480 140" version="1.1" xmlns="http://www.w3.org/2000/svg" xmlns:xlink="http://www.w3.org/1999/xlink">
    <title>chat-record-bg</title>
    <defs>
        <rect id="path-1" x="0" y="0" width="480" height="140"></rect>
        <polygon id="path-3" points="0 0 474.917983 0 474.917983 384.837932 0 384.837932"></polygon>
        <polygon id="path-5" points="0 0 313 0 313 217.467589 0 217.467589"></polygon>
    </defs>
    <g id="Style" stroke="none" stroke-width="1" fill="none" fill-rule="evenodd">
        <g id="chat-record-bg" transform="translate(26.000000, 0.000000)">
            <g id="chat-record-bg_428" transform="translate(-26.000000, 0.000000)">
                <mask id="mask-2" fill="white">
                    <use xlink:href="#path-1"></use>
                </mask>
                <g id="Mask"></g>
                <g id="chat-record-bg" mask="url(#mask-2)">
                    <g transform="translate(-4.000000, -148.476629)">
                        <g id="Group-3" transform="translate(0.000000, 14.849534)">
                            <mask id="mask-4" fill="white">
                                <use xlink:href="#path-3"></use>
                            </mask>
                            <g id="Clip-2"></g>
                            <path d="M-148.055966,6.83144257 C-148.953586,99.7090004 -67.2584728,187.865627 45.47631,230.722362 C158.211093,273.580976 296.550003,273.537751 415.17029,240.230002 C494.54617,217.940891 565.17993,182.122328 639.251401,151.597899 C713.3203,121.07159 794.511456,95.1609695 879.53886,95.8412948 C949.694375,96.4032209 1016.83643,114.969336 1084.31531,129.009972 C1151.7942,143.052487 1225.06345,152.55261 1291.15388,135.341507 C1365.86301,115.88458 1418.59085,64.5632455 1442.97622,9.40427496 L-148.055966,6.83144257 Z" id="Fill-1" fill="#FFF1CF" mask="url(#mask-4)"></path>
                            <path d="M432.926593,-55.2123227 L42.4521464,-55.1744188 C19.1382139,-55.1721557 0.237475283,-36.3361075 0.235219462,-13.1019851 L0.20342645,314.354397 C21.5035335,325.245672 48.6765053,331.941814 82.9038979,328.970994 C185.128738,320.103657 383.64668,162.396368 475.11983,120.84003 L475.132839,-13.148084 C475.132839,-36.3822064 456.240526,-55.2123227 432.926593,-55.2123227" id="Fill-1" fill="#FFB400" mask="url(#mask-4)" transform="translate(237.668133, 137.232340) rotate(22.000000) translate(-237.668133, -137.232340) "></path>
                        </g>
                        <g id="Group-6" transform="translate(363.552089, 129.456195) rotate(-8.000000) translate(-363.552089, -129.456195) translate(207.052089, 20.722400)">
                            <mask id="mask-6" fill="white">
                                <use xlink:href="#path-5"></use>
                            </mask>
                            <g id="Clip-5"></g>
                            <path d="M292.434829,38.4168177 L68.1151829,38.4168177 C70.8171031,149.772823 154.315478,241.070274 262.183868,255.884909 C289.971461,238.612893 314.808536,224.099777 334.615922,215.066769 L334.615922,80.6269699 C334.615922,57.3145232 315.732613,38.4168177 292.434829,38.4168177" id="Fill-4" fill="#FFC22F" mask="url(#mask-6)"></path>
                        </g>
                    </g>
                </g>
            </g>
        </g>
    </g>
</svg>