<?xml version="1.0" encoding="UTF-8"?>
<svg width="275px" height="101px" viewBox="0 0 275 101" version="1.1" xmlns="http://www.w3.org/2000/svg" xmlns:xlink="http://www.w3.org/1999/xlink">
    <title>light-box-header</title>
    <defs>
        <rect id="path-1" x="50" y="222" width="275" height="367" rx="4"></rect>
        <filter x="-2.5%" y="-1.4%" width="105.1%" height="103.8%" filterUnits="objectBoundingBox" id="filter-2">
            <feOffset dx="0" dy="2" in="SourceAlpha" result="shadowOffsetOuter1"></feOffset>
            <feGaussianBlur stdDeviation="2" in="shadowOffsetOuter1" result="shadowBlurOuter1"></feGaussianBlur>
            <feColorMatrix values="0 0 0 0 0.890196078   0 0 0 0 0.890196078   0 0 0 0 0.890196078  0 0 0 1 0" type="matrix" in="shadowBlurOuter1"></feColorMatrix>
        </filter>
        <rect id="path-3" x="0" y="0" width="275" height="101"></rect>
        <polygon id="path-5" points="35.7891031 46.0484549 351.789103 46.0484549 351.789103 311.048455 35.7891031 311.048455"></polygon>
    </defs>
    <g id="Style" stroke="none" stroke-width="1" fill="none" fill-rule="evenodd">
        <g id="light-box-header" transform="translate(-50.000000, -222.000000)">
            <rect fill="#FFFFFF" x="0" y="0" width="375" height="812"></rect>
            <rect id="Rectangle" fill="#F9F9F9" x="0" y="94" width="375" height="635"></rect>
            <g id="Mask">
                <use fill="black" fill-opacity="1" filter="url(#filter-2)" xlink:href="#path-1"></use>
                <use fill="#FFFFFF" fill-rule="evenodd" xlink:href="#path-1"></use>
            </g>
            <g id="light-box-header" transform="translate(50.000000, 222.000000)">
                <mask id="mask-4" fill="white">
                    <use xlink:href="#path-3"></use>
                </mask>
                <g id="Mask"></g>
                <g mask="url(#mask-4)">
                    <g transform="translate(138.462966, 82.167231) scale(1, -1) rotate(20.000000) translate(-138.462966, -82.167231) translate(-55.326137, -96.381224)">
                        <mask id="mask-6" fill="white">
                            <use xlink:href="#path-5"></use>
                        </mask>
                        <g id="Clip-2" stroke="none" fill="none" transform="translate(193.789103, 178.548455) rotate(-20.000000) translate(-193.789103, -178.548455) "></g>
                        <path d="M63.5115876,246.989623 L63.5115876,352.692339 L460.511588,352.692339 L460.511588,75.0558969 C460.511588,75.0558969 381.595186,72.2897444 273.805481,149.747962 C166.017756,227.208162 107.920629,246.989623 63.5115876,246.989623" id="Fill-1-Copy-3" stroke="none" fill="#FFF1CF" fill-rule="evenodd" mask="url(#mask-6)"></path>
                        <path d="M63.3492053,269.023707 L63.3492053,353.159874 L379.349205,353.159874 L379.349205,132.169658 C379.349205,132.169658 316.534135,129.967884 230.736788,191.622284 C144.941017,253.278262 98.6974602,269.023707 63.3492053,269.023707" id="Fill-1" stroke="none" fill="#FFB400" fill-rule="evenodd" mask="url(#mask-6)"></path>
                    </g>
                </g>
            </g>
        </g>
    </g>
</svg>