<?xml version="1.0" encoding="UTF-8"?>
<svg width="16px" height="16px" viewBox="0 0 16 16" version="1.1" xmlns="http://www.w3.org/2000/svg" xmlns:xlink="http://www.w3.org/1999/xlink">
    <title>pushpin-round</title>
    <g id="Guideline" stroke="none" stroke-width="1" fill="none" fill-rule="evenodd">
        <g id="icon" transform="translate(-166.000000, -302.000000)">
            <g id="pushpin-round" transform="translate(166.000000, 302.000000)">
                <circle id="Oval" stroke="#FFFFFF" fill="#FFB400" cx="8" cy="8" r="7.5"></circle>
                <path d="M11.8970674,6.72483043 L9.27561082,4.10320521 C9.20645714,4.03404708 9.1160254,4 9.02559366,4 C8.93516192,4 8.84473018,4.03404708 8.77557649,4.10320521 L7.06162903,5.81832691 C6.93183288,5.80343131 6.80097284,5.79704748 6.67011279,5.79704748 C5.89133591,5.79704748 5.11255904,6.05346456 4.47315344,6.56629871 C4.3093124,6.69716718 4.29654557,6.94294454 4.44442806,7.09190052 L6.37753951,9.02513632 L4.08589281,11.3148025 C4.05823133,11.3424658 4.04014499,11.3797047 4.03695328,11.4190717 L4.00078058,11.814869 C3.99120546,11.9148823 4.07099817,12 4.16994113,12 C4.17526065,12 4.18058016,12 4.18589967,11.998936 L4.58167153,11.962761 C4.62103593,11.9595691 4.65827253,11.9414816 4.68593401,11.9138183 L6.97758071,9.62202421 L8.91069215,11.55526 C8.97984584,11.6244181 9.07027758,11.6584652 9.16070932,11.6584652 C9.26390789,11.6584652 9.36604256,11.6137784 9.43626015,11.5265328 C10.0352374,10.778561 10.2841907,9.84226626 10.1831199,8.93682671 L11.8970674,7.22276899 C12.0343109,7.08658066 12.0343109,6.8631467 11.8970674,6.72483043 Z" id="Path" fill="#FFFFFF" fill-rule="nonzero"></path>
            </g>
        </g>
    </g>
</svg>