<?xml version="1.0" encoding="UTF-8"?>
<svg width="60px" height="60px" viewBox="0 0 60 60" version="1.1" xmlns="http://www.w3.org/2000/svg" xmlns:xlink="http://www.w3.org/1999/xlink">
    <title>connect-round</title>
    <g id="Guideline" stroke="none" stroke-width="1" fill="none" fill-rule="evenodd">
        <g id="icon" transform="translate(-120.000000, -576.000000)">
            <g id="connect-round" transform="translate(120.000000, 576.000000)">
                <circle id="Oval" fill="#FFB400" cx="30" cy="30" r="30"></circle>
                <g id="check" transform="translate(15.000000, 15.000000)" fill-rule="nonzero">
                    <rect id="Rectangle" fill="#000000" opacity="0" x="0" y="0" width="30" height="30"></rect>
                    <path d="M26.0128125,8.7365625 C25.6359375,8.383125 25.0415625,8.4 24.688125,8.7778125 L12.185625,22.089375 L5.3559375,15.36 C4.9865625,14.99625 4.393125,15 4.029375,15.369375 C3.665625,15.7378125 3.6703125,16.3321875 4.0396875,16.695 L11.55375,24.0975 C11.5565625,24.1003125 11.5603125,24.10125 11.563125,24.1040625 C11.5659375,24.106875 11.566875,24.110625 11.5696875,24.1134375 C11.62875,24.1696875 11.7,24.2015625 11.7684375,24.2390625 C11.8021875,24.25875 11.83125,24.2878125 11.866875,24.301875 C11.9775,24.345 12.0946875,24.3675 12.2109375,24.3675 C12.33375,24.3675 12.4565625,24.343125 12.5709375,24.294375 C12.609375,24.2784375 12.639375,24.245625 12.675,24.225 C12.7453125,24.18375 12.8184375,24.1490625 12.8784375,24.088125 C12.88125,24.0853125 12.8821875,24.080625 12.885,24.0778125 C12.886875,24.075 12.890625,24.0740625 12.8934375,24.07125 L26.053125,10.06125 C26.409375,9.6853125 26.3896875,9.091875 26.0128125,8.7365625 Z" id="Path" stroke="#FFFFFF" fill="#FFFFFF"></path>
                </g>
            </g>
        </g>
    </g>
</svg>