<?xml version="1.0" encoding="UTF-8"?>
<svg width="32px" height="32px" viewBox="0 0 32 32" version="1.1" xmlns="http://www.w3.org/2000/svg" xmlns:xlink="http://www.w3.org/1999/xlink">
    <title>download</title>
    <g id="大網Guideline" stroke="none" stroke-width="1" fill="none" fill-rule="evenodd">
        <g id="icon" transform="translate(-128.000000, -344.000000)" fill-rule="nonzero">
            <g id="download" transform="translate(128.000000, 344.000000)">
                <rect id="Rectangle" fill="#000000" opacity="0" x="0" y="0" width="32" height="32"></rect>
                <path d="M23.98,15.329641 C23.6541667,15.008 23.1258333,15.009641 22.8016667,15.3288205 L17.5,20.5382564 L17.5,6.15384615 C17.5,5.70092308 17.1266667,5.33333333 16.6666667,5.33333333 C16.2066667,5.33333333 15.8333333,5.70092308 15.8333333,6.15384615 L15.8333333,20.5907692 L9.73833333,14.5534359 C9.41333333,14.2309744 8.88666667,14.2293333 8.56,14.5501538 C8.23333333,14.8693333 8.23166667,15.3887179 8.55666667,15.710359 L16.0441667,23.1269744 C16.1266667,23.2090256 16.2233333,23.2689231 16.3258333,23.3099487 C16.43,23.3558974 16.5441667,23.3846154 16.6666667,23.3846154 C16.9608333,23.3846154 17.2058333,23.2262564 17.3541667,23.0006154 L23.9783333,16.4890256 C24.305,16.1698462 24.305,15.6504615 23.98,15.329641 Z M25.8333333,26.6666667 L7.5,26.6666667 C7.04,26.6666667 6.66666667,26.2998974 6.66666667,25.8461538 C6.66666667,25.3924103 7.04,25.025641 7.5,25.025641 L25.8333333,25.025641 C26.2941667,25.025641 26.6666667,25.3924103 26.6666667,25.8461538 C26.6666667,26.2998974 26.2941667,26.6666667 25.8333333,26.6666667 Z" id="Shape" fill="#FFFFFF"></path>
            </g>
        </g>
    </g>
</svg>