<?xml version="1.0" encoding="UTF-8"?>
<svg width="24px" height="24px" viewBox="0 0 24 24" version="1.1" xmlns="http://www.w3.org/2000/svg" xmlns:xlink="http://www.w3.org/1999/xlink">
    <title>chat log</title>
    <g id="Guideline" stroke="none" stroke-width="1" fill="none" fill-rule="evenodd">
        <g id="icon" transform="translate(-166.000000, -138.000000)" fill-rule="nonzero">
            <g id="chat-log" transform="translate(166.000000, 138.000000)">
                <rect id="Rectangle" fill="#000000" opacity="0" x="0" y="0" width="24" height="24"></rect>
                <path d="M12,21.75 C11.808,21.75 11.616,21.6765 11.46975,21.53025 L9.21975,19.28025 C8.9265,18.987 8.9265,18.513 9.21975,18.21975 C9.513,17.9265 9.987,17.9265 10.28025,18.21975 L12,19.9395 L13.71975,18.21975 C13.86,18.07875 14.0505,18 14.25,18 L19.5,18 C19.914,18 20.25,17.664 20.25,17.25 L20.25,5.25 C20.25,4.83675 19.914,4.5 19.5,4.5 L4.5,4.5 C4.08675,4.5 3.75,4.83675 3.75,5.25 L3.75,17.25 C3.75,17.664 4.08675,18 4.5,18 L6.75,18 C7.164,18 7.5,18.33525 7.5,18.75 C7.5,19.16475 7.164,19.5 6.75,19.5 L4.5,19.5 C3.2595,19.5 2.25,18.4905 2.25,17.25 L2.25,5.25 C2.25,4.0095 3.2595,3 4.5,3 L19.5,3 C20.7405,3 21.75,4.0095 21.75,5.25 L21.75,17.25 C21.75,18.4905 20.7405,19.5 19.5,19.5 L14.5605,19.5 L12.53025,21.53025 C12.384,21.6765 12.192,21.75 12,21.75 Z M7.875,12 C7.25475,12 6.75,11.49525 6.75,10.875 C6.75,10.25475 7.25475,9.75 7.875,9.75 C8.49525,9.75 9,10.25475 9,10.875 C9,11.49525 8.49525,12 7.875,12 Z M12.375,12 C11.75475,12 11.25,11.49525 11.25,10.875 C11.25,10.25475 11.75475,9.75 12.375,9.75 C12.99525,9.75 13.5,10.25475 13.5,10.875 C13.5,11.49525 12.99525,12 12.375,12 Z M16.875,12 C16.25475,12 15.75,11.49525 15.75,10.875 C15.75,10.25475 16.25475,9.75 16.875,9.75 C17.49525,9.75 18,10.25475 18,10.875 C18,11.49525 17.49525,12 16.875,12 Z" id="Shape" fill="#3E3E3E"></path>
            </g>
        </g>
    </g>
</svg>