<?xml version="1.0" encoding="UTF-8"?>
<svg width="48px" height="48px" viewBox="0 0 48 48" version="1.1" xmlns="http://www.w3.org/2000/svg" xmlns:xlink="http://www.w3.org/1999/xlink">
    <title>message-round</title>
    <g id="Guideline" stroke="none" stroke-width="1" fill="none" fill-rule="evenodd">
        <g id="icon" transform="translate(-88.000000, -498.000000)">
            <g id="message-round" transform="translate(88.000000, 498.000000)">
                <circle id="Oval-Copy-6" fill="#FFF1CF" cx="24" cy="24" r="24"></circle>
                <g id="ic_èŠå¤©2" transform="translate(12.000000, 12.000000)" fill-rule="nonzero">
                    <rect id="Rectangle" fill="#505050" opacity="0" x="0" y="0" width="24" height="24"></rect>
                    <path d="M18.6255469,22.3771875 L11.925,22.3771875 C6.13523437,22.3771875 1.425,17.6667188 1.425,11.8771875 C1.425,6.08765625 6.13523437,1.3771875 11.925,1.3771875 C17.7147656,1.3771875 22.425,6.08765625 22.425,11.8771875 C22.425,14.61375 21.3892969,17.1796875 19.5007031,19.1442188 L19.5007031,21.5022656 C19.5007031,21.9853125 19.1088281,22.3771875 18.6255469,22.3771875 L18.6255469,22.3771875 Z M11.925,3.12703125 C7.10015625,3.12703125 3.17507812,7.05210938 3.17507812,11.8769531 C3.17507812,16.7017969 7.10015625,20.6271094 11.925,20.6271094 L17.750625,20.6271094 L17.750625,18.7830469 C17.750625,18.5463281 17.8464844,18.3199219 18.0161719,18.1549219 C19.730625,16.4913281 20.6749219,14.2619531 20.6749219,11.8769531 C20.6749219,7.05234375 16.7498438,3.12703125 11.925,3.12703125 L11.925,3.12703125 Z" id="Shape" fill="#3E3E3E"></path>
                    <path d="M5.758125,11.8771875 C5.758125,12.6860689 6.41385295,13.3417969 7.22273438,13.3417969 C8.0316158,13.3417969 8.68734375,12.6860689 8.68734375,11.8771875 C8.68734375,11.0683061 8.0316158,10.4125781 7.22273438,10.4125781 C6.41385295,10.4125781 5.758125,11.0683061 5.758125,11.8771875 L5.758125,11.8771875 Z" id="Path" fill="#3E3E3E"></path>
                    <path d="M10.4603906,11.8771875 C10.4603906,12.400442 10.7395436,12.8839492 11.1926953,13.1455765 C11.645847,13.4072037 12.204153,13.4072037 12.6573047,13.1455765 C13.1104564,12.8839492 13.3896094,12.400442 13.3896094,11.8771875 C13.3896094,11.0683061 12.7338814,10.4125781 11.925,10.4125781 C11.1161186,10.4125781 10.4603906,11.0683061 10.4603906,11.8771875 L10.4603906,11.8771875 Z" id="Path" fill="#3E3E3E"></path>
                    <path d="M15.1624219,11.8771875 C15.1624219,12.6860689 15.8181498,13.3417969 16.6270312,13.3417969 C17.4359127,13.3417969 18.0916406,12.6860689 18.0916406,11.8771875 C18.0916406,11.0683061 17.4359127,10.4125781 16.6270312,10.4125781 C15.8181498,10.4125781 15.1624219,11.0683061 15.1624219,11.8771875 L15.1624219,11.8771875 Z" id="Path" fill="#3E3E3E"></path>
                </g>
            </g>
        </g>
    </g>
</svg>