<?xml version="1.0" encoding="UTF-8"?>
<svg width="24px" height="24px" viewBox="0 0 24 24" version="1.1" xmlns="http://www.w3.org/2000/svg" xmlns:xlink="http://www.w3.org/1999/xlink">
    <title>more chat</title>
    <g id="Guideline" stroke="none" stroke-width="1" fill="none" fill-rule="evenodd">
        <g id="icon" transform="translate(-234.000000, -138.000000)" fill-rule="nonzero">
            <g id="more-chat" transform="translate(234.000000, 138.000000)">
                <rect id="Rectangle" fill="#000000" opacity="0" x="0" y="0" width="24" height="24"></rect>
                <path d="M10.5,21.75 C10.47225,21.75 10.4445,21.7485 10.4175,21.7455 L3.70425,20.99925 C2.48475,20.97525 1.5,19.9755 1.5,18.75 L1.5,4.5 C1.5,3.2595 2.5095,2.25 3.75,2.25 C3.77775,2.25 3.8055,2.2515 3.8325,2.2545 L10.54575,3 C11.76525,3.02475 12.75,4.0245 12.75,5.25 L12.75,19.5 C12.75,20.7405 11.7405,21.75 10.5,21.75 Z M3.7155,3.75075 C3.318,3.76875 3,4.098 3,4.5 L3,18.75 C3,19.164 3.33675,19.5 3.75,19.5 C3.77775,19.5 3.8055,19.5015 3.8325,19.5045 L10.5345,20.24925 C10.932,20.23125 11.25,19.902 11.25,19.5 L11.25,5.25 C11.25,4.83675 10.91325,4.5 10.5,4.5 C10.47225,4.5 10.4445,4.4985 10.4175,4.4955 L3.7155,3.75075 Z M14.27775,21.66375 C13.9005,21.66375 13.575,21.38025 13.533,20.99625 C13.48725,20.5845 13.78425,20.214 14.196,20.16825 L20.1675,19.5045 C20.1945,19.5015 20.22225,19.5 20.25,19.5 C20.664,19.5 21,19.164 21,18.75 L21,4.5 C21,4.098 20.682,3.76875 20.2845,3.75075 L14.355,4.40925 C13.95075,4.45875 13.57275,4.1595 13.527,3.747 C13.48125,3.33525 13.77825,2.96475 14.19,2.919 L20.16825,2.2545 C20.1945,2.2515 20.22225,2.25 20.25,2.25 C21.4905,2.25 22.5,3.2595 22.5,4.5 L22.5,18.75 C22.5,19.9755 21.516,20.97525 20.29575,20.99925 L14.36175,21.65925 C14.33325,21.66225 14.30475,21.66375 14.27775,21.66375 Z" id="Shape" fill="#3E3E3E"></path>
            </g>
        </g>
    </g>
</svg>