<?xml version="1.0" encoding="UTF-8"?>
<svg width="480px" height="120px" viewBox="0 0 480 120" version="1.1" xmlns="http://www.w3.org/2000/svg" xmlns:xlink="http://www.w3.org/1999/xlink">
    <title>樣式-更多聊天室_428</title>
    <defs>
        <rect id="path-1" x="0" y="0" width="480" height="120"></rect>
    </defs>
    <g id="Style" stroke="none" stroke-width="1" fill="none" fill-rule="evenodd">
        <g id="小網/428/更多聊天室" transform="translate(26.000000, 0.000000)">
            <g id="樣式-更多聊天室_428" transform="translate(-26.000000, 0.000000)">
                <mask id="mask-2" fill="white">
                    <use xlink:href="#path-1"></use>
                </mask>
                <g id="Mask"></g>
                <g id="樣式-更多聊天室" mask="url(#mask-2)">
                    <g transform="translate(139.000000, -81.000000) rotate(-270.000000) translate(-139.000000, 81.000000) translate(-54.000000, -469.000000)" id="Fill-1">
                        <path d="M17.9875582,608.995537 C3.1962026,579.039543 7.4715103,549.776409 27.6305491,531.52595 C46.9474606,514.037215 80.002717,504.174153 85.3015117,478.31348 C90.036545,455.208787 80.0955057,427.308886 88.1948308,404.828188 C96.3532032,382.18868 114.977012,364.83908 112.558883,337.570201 C110.132319,310.214188 95.497017,280.157006 78.5223162,250.452578 C44.2144129,190.423942 -4.51931488,126.205825 0.336624877,72.4129268 C2.3217398,50.4297387 15.6580005,-9.20538602 61.7205397,1.2099961 C69.9731066,3.07636061 77.6830006,8.93123605 86.2982869,11.5902433 C176.671628,39.4901443 274.424479,58.1031952 353.557739,42.2812587 C432.690999,26.4607275 341.455849,393.136707 347.041445,583.92048 C352.627041,774.704252 155.354137,887.207525 17.9875582,608.995537" fill="#FFF1CF"></path>
                        <path d="M72.6245668,511.211149 C60.6094603,486.886972 64.0823183,463.125396 80.457626,448.306078 C96.1488686,434.105278 122.999851,426.096502 127.304093,405.097714 C131.150389,386.336772 123.075224,363.682137 129.654354,345.427878 C136.281448,327.044667 151.409679,312.956843 149.445419,290.814596 C147.474306,268.601596 135.585963,244.195255 121.797312,220.075349 C93.9287976,171.332278 54.3420993,119.187361 58.2866082,75.5076901 C59.8991289,57.6574078 70.7322532,9.23386659 108.149129,17.6911254 C114.852738,19.2066078 121.115531,23.9607489 128.11378,26.1198548 C201.524585,48.7744901 280.929809,63.8882313 345.21023,51.0408666 C409.49065,38.1946431 335.379792,335.934431 339.917005,490.850278 C344.454218,645.766125 184.208259,737.118443 72.6245668,511.211149" fill="#FFB400"></path>
                    </g>
                </g>
            </g>
        </g>
    </g>
</svg>