<?xml version="1.0" encoding="UTF-8"?>
<svg width="48px" height="48px" viewBox="0 0 48 48" version="1.1" xmlns="http://www.w3.org/2000/svg" xmlns:xlink="http://www.w3.org/1999/xlink">
    <title>phone-round</title>
    <g id="Guideline" stroke="none" stroke-width="1" fill="none" fill-rule="evenodd">
        <g id="icon" transform="translate(-30.000000, -498.000000)">
            <g id="phone-round" transform="translate(30.000000, 498.000000)">
                <circle id="Oval" fill="#FFF1CF" cx="24" cy="24" r="24"></circle>
                <g id="phone" transform="translate(12.000000, 12.000000)" fill-rule="nonzero">
                    <rect id="Rectangle" fill="#666666" opacity="0" x="0" y="0" width="24" height="24"></rect>
                    <path d="M10.4595,13.44 C9.72159251,12.7386948 9.076363,11.9459362 8.5395,11.081 C10.12825,10.36675 11.16775,8.8905 11.16775,7.10149999 C11.1675,4.56075 9.11625,2.50000001 6.58375001,2.50000001 C3.98575001,2.50000001 1.99999999,4.42375001 1.99999999,7.10149999 C1.99999999,10.8105 3.93499999,14.802 6.702,17.406 C9.04600001,19.612 12.772,21.19675 16.3925,21.4975 C16.412,21.49925 16.43175,21.5 16.4515,21.5 L17.41625,21.5 C17.8113407,21.5 18.131625,21.1797157 18.131625,20.784625 C18.131625,20.3895343 17.8113407,20.06925 17.41625,20.06925 L16.48175,20.06925 C13.18475,19.7885 9.77799998,18.3365 7.68199999,16.364 C5.18799998,14.0165 3.43024999,10.39125 3.43024999,7.10149999 C3.43024999,5.22399998 4.76574998,3.93075 6.58375001,3.93075 C8.32475002,3.93075 9.73725,5.34949999 9.73725,7.10149999 C9.73725,8.51499998 8.77875,9.63249998 7.323,9.99250001 C7.11029851,10.0450078 6.93339364,10.1921021 6.84295535,10.3916513 C6.75251706,10.5912006 6.75852193,10.8211919 6.85924999,11.01575 C7.50549998,12.26525 8.40699998,13.46325 9.47425001,14.47725 C10.67575,15.6185 12.051,16.4955 13.50675,17.01225 C13.707418,17.0835767 13.9294367,17.0617379 14.1123612,16.9526794 C14.2952856,16.8436208 14.4200731,16.6586956 14.45275,16.44825 C14.69775,14.87575 15.897,13.77575 17.41625,13.77575 C19.157,13.77575 20.56975,15.19475 20.56975,16.9465 C20.56975,17.546 20.40475,18.119 20.0975,18.6165 C19.902982,18.9516496 20.0106257,19.3807429 20.3403079,19.5843901 C20.6699901,19.7880372 21.1018772,19.6922162 21.3145,19.36825 C21.7638911,18.6405114 22.0012939,17.8018094 22,16.9465 C22,14.406 19.9485,12.345 17.41625,12.345 C15.46925,12.345 13.87225,13.57275 13.25325,15.36525 C12.26025,14.907 11.31325,14.251 10.4595,13.44 Z" id="Path" fill="#3E3E3E"></path>
                </g>
            </g>
        </g>
    </g>
</svg>