<?xml version="1.0" encoding="UTF-8"?>
<svg width="400px" height="382px" viewBox="0 0 400 382" version="1.1" xmlns="http://www.w3.org/2000/svg" xmlns:xlink="http://www.w3.org/1999/xlink">
    <title>大網/400/左邊區塊</title>
    <defs>
        <rect id="path-1" x="0" y="0" width="400" height="416"></rect>
    </defs>
    <g id="Style" stroke="none" stroke-width="1" fill="none" fill-rule="evenodd">
        <g id="大網/400/左邊區塊" transform="translate(0.000000, -642.000000)">
            <g id="樣式-Menu_428" transform="translate(0.000000, 608.000000)">
                <mask id="mask-2" fill="white">
                    <use xlink:href="#path-1"></use>
                </mask>
                <g id="Mask"></g>
                <g id="樣式-Menu" mask="url(#mask-2)">
                    <g transform="translate(-190.000000, 36.000000)" id="Group-3">
                        <g transform="translate(432.500000, 205.000000) scale(-1, 1) rotate(-180.000000) translate(-432.500000, -205.000000) ">
                            <path d="M48,33 L48,410 C48,410 125.556817,194.789618 460.64822,239.052177 L460.64822,239.052177 C795.740768,283.315882 722.144894,33 722.144894,33 L722.144894,33 L48,33 Z" id="Fill-1-Copy" fill-opacity="0.15" fill="#FFB400"></path>
                            <path d="M184,33 L184,410 C184,410 261.556817,194.789618 596.64822,239.052177 L596.64822,239.052177 C931.740768,283.315882 858.144894,33 858.144894,33 L858.144894,33 L184,33 Z" id="Fill-1-Copy-2" fill-opacity="0.15" fill="#FFB400"></path>
                            <path d="M0,0 L0,377 C0,377 77.5568166,161.789618 412.64822,206.052177 L412.64822,206.052177 C747.740768,250.315882 674.144894,0 674.144894,0 L674.144894,0 L0,0 Z" id="Fill-1" fill="#FFB400"></path>
                        </g>
                    </g>
                </g>
            </g>
        </g>
    </g>
</svg>