<?xml version="1.0" encoding="UTF-8"?>
<svg width="480px" height="135px" viewBox="0 0 480 135" version="1.1" xmlns="http://www.w3.org/2000/svg" xmlns:xlink="http://www.w3.org/1999/xlink">
    <title>樣式-圖片文件_428</title>
    <defs>
        <rect id="path-1" x="0" y="0" width="480" height="135"></rect>
    </defs>
    <g id="Style" stroke="none" stroke-width="1" fill="none" fill-rule="evenodd">
        <g id="小網/428/圖片文件" transform="translate(26.000000, 0.000000)">
            <g id="樣式-圖片文件_428" transform="translate(-26.000000, 0.000000)">
                <mask id="mask-2" fill="white">
                    <use xlink:href="#path-1"></use>
                </mask>
                <g id="Mask"></g>
                <g id="樣式-圖片文件" mask="url(#mask-2)">
                    <g transform="translate(444.498521, 21.495572) scale(1, -1) translate(-444.498521, -21.495572) translate(-156.006059, -330.985039)">
                        <path d="M1120.39297,424.67547 C1162.63986,321.706226 1135.35793,192.853621 1049.48082,122.077677 C963.601377,51.3017338 829.972337,46.2572152 739.013126,110.359873 C663.770841,163.385815 619.303904,255.063951 537.429973,297.126519 C473.562496,329.937693 397.965423,326.799029 326.263935,323.025697 C254.564771,319.252364 178.881706,316.446198 115.283867,349.780544 C51.6883523,383.114889 8.31363264,466.289891 43.3152773,529.003106 C71.7968255,580.032145 135.500682,600.376786 193.46771,607.67007 C625.955337,662.08829 1018.67459,672.594531 1120.39297,424.67547" id="Fill-1" fill="#FFB400" transform="translate(585.405455, 352.480611) rotate(7.000000) translate(-585.405455, -352.480611) "></path>
                        <path d="M1167.17463,418.960931 C1209.42296,315.990778 1182.14304,187.138241 1096.26722,116.363402 C1010.38907,45.5885627 876.76046,40.546041 785.800526,104.650237 C710.557643,157.677452 666.089446,249.3565 584.215099,291.420411 C520.347298,324.232633 444.750473,321.095099 373.049232,317.322835 C301.350315,313.550571 225.667493,310.745536 162.069321,344.080927 C98.4734735,377.416317 55.0976179,460.592192 90.0982265,523.305047 C118.578932,574.333793 182.282313,594.67753 240.249077,601.96996 C672.734739,656.381818 1065.45279,666.88218 1167.17463,418.960931" id="Fill-1-Copy" fill="#FFF1CF" transform="translate(632.188879, 346.771485) rotate(3.000000) translate(-632.188879, -346.771485) "></path>
                    </g>
                </g>
            </g>
        </g>
    </g>
</svg>