<?xml version="1.0" encoding="UTF-8"?>
<svg width="32px" height="32px" viewBox="0 0 32 32" version="1.1" xmlns="http://www.w3.org/2000/svg" xmlns:xlink="http://www.w3.org/1999/xlink">
    <title>pic-disabled</title>
    <g id="Guideline" stroke="none" stroke-width="1" fill="none" fill-rule="evenodd">
        <g id="icon" transform="translate(-30.000000, -394.000000)" fill-rule="nonzero">
            <g id="pic-disabled" transform="translate(30.000000, 394.000000)">
                <rect id="Rectangle" fill="#000000" opacity="0" x="0" y="0" width="32" height="32"></rect>
                <path d="M4,2.4 C2.6745166,2.4 1.6,3.4745166 1.6,4.8 L1.6,27.2 C1.6,28.5254834 2.6745166,29.6 4,29.6 L28,29.6 C29.3254834,29.6 30.4,28.5254834 30.4,27.2 L30.4,4.8 C30.4,3.4745166 29.3254834,2.4 28,2.4 L4,2.4 Z M4,0.8 L28,0.8 C30.2092,0.8 32,2.5908 32,4.8 L32,27.2 C32,29.4092 30.2092,31.2 28,31.2 L4,31.2 C1.7908,31.2 0,29.4092 0,27.2 L0,4.8 C0,2.5908 1.7908,0.8 4,0.8 Z" id="Shape" fill="#AEAEAE"></path>
                <path d="M23.2248,17.3812 L28.732,24.4636 C29.0132233,24.8254319 29.0638145,25.3158401 28.8623818,25.7274634 C28.6609491,26.1390867 28.2426672,26.4 27.7844,26.4 L9.2,26.4 L16.2124,17.3812 C18.1488,15.5396 21.2884,15.5396 23.2248,17.3812 Z" id="Path" fill="#AEAEAE"></path>
                <path d="M14.0784,20.4352 L19.6,26.4 L4.746,26.4 C4.26908686,26.3999222 3.83748487,26.117437 3.64655666,25.68041 C3.45562844,25.2433831 3.541617,24.7347731 3.8656,24.3848 L7.5216,20.4352 C9.332,18.7884 12.268,18.7884 14.0784,20.4352 L14.0784,20.4352 Z" id="Path" fill="#AEAEAE"></path>
                <path d="M5.2,13.2 C5.2,13.9145312 5.58119783,14.5747852 6.2,14.9320508 C6.81880215,15.2893164 7.58119785,15.2893164 8.2,14.9320508 C8.81880217,14.5747852 9.2,13.9145312 9.2,13.2 C9.2,12.0954305 8.3045695,11.2 7.2,11.2 C6.0954305,11.2 5.2,12.0954305 5.2,13.2 L5.2,13.2 Z" id="Path" fill="#AEAEAE"></path>
            </g>
        </g>
    </g>
</svg>