<?xml version="1.0" encoding="UTF-8"?>
<svg width="24px" height="24px" viewBox="0 0 24 24" version="1.1" xmlns="http://www.w3.org/2000/svg" xmlns:xlink="http://www.w3.org/1999/xlink">
    <title>search</title>
    <g id="Guideline" stroke="none" stroke-width="1" fill="none" fill-rule="evenodd">
        <g id="icon" transform="translate(-98.000000, -166.000000)" fill-rule="nonzero">
            <g id="search" transform="translate(98.000000, 166.000000)">
                <rect id="Rectangle" fill="#666666" opacity="0" x="0" y="0" width="24" height="24"></rect>
                <path d="M18.692,17.63125 C20.14675,15.9265 20.972,13.764 20.972,11.48625 C20.97225,6.24675 16.7255,1.99999999 11.48625,1.99999999 C6.24700001,1.99999999 1.99999999,6.24700001 1.99999999,11.486 C1.99999999,16.72525 6.24700001,20.9725 11.486,20.9725 C12.4247628,20.973275 13.35844,20.834681 14.2565,20.56125 C14.6502178,20.4385245 14.8709845,20.0209447 14.7506984,19.6264748 C14.6304122,19.2320049 14.2142069,19.0086578 13.819,19.1265 C13.0627474,19.3566798 12.2765062,19.4732848 11.486,19.4725 C7.0755,19.47225 3.49999999,15.89675 3.49999999,11.486 C3.49999999,7.0755 7.0755,3.49999999 11.486,3.49999999 C15.89675,3.49999999 19.4725,7.0755 19.4725,11.486 C19.4725,13.5785 18.64325,15.557 17.19575,17.04825 C16.8656858,17.3882189 16.8696939,17.9301998 17.20475,18.26525 L20.71975,21.78025 C21.0132858,22.0691114 21.4848319,22.0672469 21.7760742,21.7760732 C22.0673165,21.4848995 22.0692922,21.0133539 21.7805,20.71975 L18.692,17.63125 Z" id="Path" fill="#3E3E3E"></path>
            </g>
        </g>
    </g>
</svg>