<?xml version="1.0" encoding="UTF-8"?>
<svg width="24px" height="24px" viewBox="0 0 24 24" version="1.1" xmlns="http://www.w3.org/2000/svg" xmlns:xlink="http://www.w3.org/1999/xlink">
    <title>add-round</title>
    <g id="Guideline" stroke="none" stroke-width="1" fill="none" fill-rule="evenodd">
        <g id="icon" transform="translate(-132.000000, -166.000000)" fill-rule="nonzero">
            <g id="add-round" transform="translate(132.000000, 166.000000)">
                <rect id="Rectangle" fill="#505050" opacity="0" x="0" y="0" width="24" height="24"></rect>
                <path d="M12,22.4535 C9.19575,22.4535 6.5595,21.36675 4.5765,19.3935 C2.59275,17.41875 1.5,14.79375 1.5,12 C1.5,9.207 2.59275,6.58125 4.57575,4.60725 C6.55875,2.634 9.195,1.54725 11.99925,1.54725 C14.8035,1.54725 17.43975,2.634 19.422,4.60725 C21.4065,6.58125 22.4985004,9.207 22.4985004,11.99925 C22.49925,14.793 21.4065,17.41875 19.422,19.39275 C17.4405,21.366 14.80425,22.4535 12,22.4535 Z M12,3.0465 C9.59475,3.0465 7.33425,3.978 5.63475,5.67 C3.936,7.3605 3,9.609 3,12 C3,14.391 3.93525,16.6395 5.634,18.32925 C7.3335,20.02125 9.594,20.95275 11.99925,20.95275 C14.40375,20.95275 16.665,20.02125 18.3645,18.32925 C20.06325,16.638 20.99925,14.39025 20.9985005,11.99925 C20.9985005,9.60825 20.06325,7.3605 18.3645,5.67075 C16.66575,3.97875 14.4045,3.0465 12,3.0465 Z M17.25,11.25 L12.75,11.25 L12.75,6.75 C12.75,6.336 12.414,6 12,6 C11.586,6 11.25,6.336 11.25,6.75 L11.25,11.25 L6.75,11.25 C6.336,11.25 6,11.586 6,12 C6,12.414 6.336,12.75 6.75,12.75 L11.25,12.75 L11.25,17.25 C11.25,17.66475 11.586,18 12,18 C12.414,18 12.75,17.66475 12.75,17.25 L12.75,12.75 L17.25,12.75 C17.66475,12.75 18,12.414 18,12 C18,11.586 17.66475,11.25 17.25,11.25 Z" id="Shape" fill="#3E3E3E"></path>
            </g>
        </g>
    </g>
</svg>