<?xml version="1.0" encoding="UTF-8"?>
<svg width="63px" height="24px" viewBox="0 0 63 24" version="1.1" xmlns="http://www.w3.org/2000/svg" xmlns:xlink="http://www.w3.org/1999/xlink">
    <title>voice</title>
    <g id="小網Guideline" stroke="none" stroke-width="1" fill="none" fill-rule="evenodd">
        <g id="icon" transform="translate(-72.000000, -398.000000)" fill="#3E3E3E">
            <g id="voice" transform="translate(72.000000, 398.000000)">
                <rect id="Rectangle" x="12" y="0" width="3" height="24" rx="0.5"></rect>
                <rect id="Rectangle-Copy" x="6" y="2" width="3" height="20" rx="0.5"></rect>
                <rect id="Rectangle-Copy-7" x="42" y="2" width="3" height="20" rx="0.5"></rect>
                <rect id="Rectangle-Copy-2" x="0" y="7" width="3" height="10" rx="0.5"></rect>
                <rect id="Rectangle-Copy-3" x="18" y="5" width="3" height="15" rx="0.5"></rect>
                <rect id="Rectangle-Copy-8" x="48" y="5" width="3" height="15" rx="0.5"></rect>
                <rect id="Rectangle-Copy-10" x="60" y="5" width="3" height="15" rx="0.5"></rect>
                <rect id="Rectangle-Copy-4" x="24" y="5" width="3" height="15" rx="0.5"></rect>
                <rect id="Rectangle-Copy-5" x="30" y="7" width="3" height="10" rx="0.5"></rect>
                <rect id="Rectangle-Copy-9" x="54" y="7" width="3" height="10" rx="0.5"></rect>
                <rect id="Rectangle-Copy-6" x="36" y="2" width="3" height="20" rx="0.5"></rect>
            </g>
        </g>
    </g>
</svg>