<?xml version="1.0" encoding="UTF-8"?>
<svg width="1920px" height="166px" viewBox="0 0 1920 166" version="1.1" xmlns="http://www.w3.org/2000/svg" xmlns:xlink="http://www.w3.org/1999/xlink">
    <title>大網/1920/交談室</title>
    <defs>
        <rect id="path-1" x="0" y="0" width="1920" height="1031"></rect>
    </defs>
    <g id="Style" stroke="none" stroke-width="1" fill="none" fill-rule="evenodd">
        <g id="Fill-1-+-Fill-1-Copy-Mask">
            <mask id="mask-2" fill="white">
                <use xlink:href="#path-1"></use>
            </mask>
            <g id="Mask"></g>
            <rect id="Rectangle" fill="#FFF1CF" mask="url(#mask-2)" x="0" y="-33" width="91" height="84"></rect>
            <g id="Group-14" mask="url(#mask-2)">
                <g transform="translate(-106.978041, -122.999421)">
                    <path d="M107.370775,156.564984 C106.475872,199.620904 187.92367,240.488307 300.31717,260.355713 C412.71067,280.22399 550.630786,280.203952 668.891973,264.763239 C748.027558,254.430515 818.447488,237.825845 892.294722,223.675415 C966.139392,209.524114 1047.08476,197.51254 1131.85476,197.827924 C1201.79789,198.08842 1268.73669,206.695248 1336.01129,213.204167 C1403.28589,219.713957 1476.33334,224.117997 1542.22369,216.139322 C1616.70665,207.119534 1669.27487,183.328133 1693.58642,157.757691 L107.370775,156.564984 Z" id="Fill-1" fill="#FFF1CF"></path>
                    <path d="M4.82728054,70.4543124 C3.74627188,145.809685 107.903705,217.424877 251.581158,252.319807 C395.258612,287.21626 571.531699,287.332182 722.656237,260.437355 C823.782642,242.439685 913.760442,213.455329 1008.12225,188.770129 C1102.48078,164.083402 1205.91774,143.149395 1314.26116,143.794182 C1403.65455,144.326675 1489.22052,159.463606 1575.21257,170.92915 C1661.20463,182.39622 1754.57172,190.184131 1838.77313,176.29201 C1933.95505,160.587142 2001.10626,119.005043 2032.14053,74.2783372 L4.82728054,70.4543124 Z" id="Fill-1-Copy" fill="#FFB400" transform="translate(1018.483905, 175.053882) rotate(4.000000) translate(-1018.483905, -175.053882) "></path>
                </g>
            </g>
            <rect id="Rectangle" fill="#FFB400" mask="url(#mask-2)" x="159" y="-11" width="1768" height="43" rx="2"></rect>
        </g>
    </g>
</svg>