<?xml version="1.0" encoding="UTF-8"?>
<svg width="24px" height="24px" viewBox="0 0 24 24" version="1.1" xmlns="http://www.w3.org/2000/svg" xmlns:xlink="http://www.w3.org/1999/xlink">
    <title>close-round</title>
    <g id="Guideline" stroke="none" stroke-width="1" fill="none" fill-rule="evenodd">
        <g id="icon" transform="translate(-64.000000, -122.000000)" fill-rule="nonzero">
            <g id="close-round" transform="translate(64.000000, 122.000000)">
                <rect id="Rectangle" fill="#000000" opacity="0" x="0" y="0" width="24" height="24"></rect>
                <path d="M12,22.5 C6.21,22.5 1.5,17.79 1.5,12 C1.5,6.21 6.21,1.5 12,1.5 C17.79,1.5 22.5,6.21 22.5,12 C22.5,17.79 17.79,22.5 12,22.5 Z M12,3.00675 C7.041,3.00675 3.00675,7.041 3.00675,12 C3.00675,16.95825 7.041,20.99325 12,20.99325 C16.95825,20.99325 20.99325,16.95825 20.99325,12 C20.99325,7.041 16.95825,3.00675 12,3.00675 Z M13.056,12.03225 L16.299,8.8245 C16.59375,8.5335 16.596,8.05875 16.305,7.764 C16.014,7.46925 15.5385,7.467 15.2445,7.758 L11.997,10.9695 L8.799,7.76175 C8.50575,7.4685 8.03175,7.467 7.7385,7.76025 C7.44525,8.05275 7.4445,8.5275 7.737,8.82075 L10.9305,12.024 L7.71075,15.20925 C7.416,15.501 7.41375,15.975 7.70475,16.26975 C7.85175,16.41825 8.0445,16.4925 8.238,16.4925 C8.4285,16.4925 8.619,16.41975 8.76525,16.27575 L11.9895,13.08675 L15.24,16.34775 C15.38625,16.49475 15.57825,16.56825 15.771,16.56825 C15.963,16.56825 16.15425,16.49475 16.3005,16.34925 C16.59375,16.05675 16.5945,15.58275 16.302,15.28875 L13.056,12.03225 Z" id="Shape" fill="#3E3E3E"></path>
            </g>
        </g>
    </g>
</svg>