<?xml version="1.0" encoding="UTF-8"?>
<svg width="80px" height="80px" viewBox="0 0 80 80" version="1.1" xmlns="http://www.w3.org/2000/svg" xmlns:xlink="http://www.w3.org/1999/xlink">
    <title>close-round-red</title>
    <g id="Guideline" stroke="none" stroke-width="1" fill="none" fill-rule="evenodd">
        <g id="icon" transform="translate(-30.000000, -566.000000)">
            <g id="close-round-red" transform="translate(30.000000, 566.000000)">
                <circle id="Oval" fill="#DF3636" cx="40" cy="40" r="40"></circle>
                <g id="close" transform="translate(20.000000, 20.000000)" fill-rule="nonzero">
                    <rect id="Rectangle" fill="#000000" opacity="0" x="0" y="0" width="40" height="40"></rect>
                    <path d="M21.77,20.04875 L32.1325,9.74 C32.6225,9.2525 32.625,8.4625 32.1375,7.9725 C31.64875,7.48125 30.86,7.48 30.37,7.9675 L20.005,18.2775 L9.73,7.97125 C9.24375,7.48375 8.4525,7.48125 7.9625,7.96875 C7.47375,8.45625 7.4725,9.2475 7.96,9.7375 L18.2325,20.04125 L7.875,30.34375 C7.385,30.83125 7.3825,31.62125 7.87,32.11125 C8.11375,32.35625 8.435,32.48 8.75625,32.48 C9.075,32.48 9.39375,32.35875 9.6375,32.11625 L19.9975,21.81125 L30.36625,32.21125 C30.61,32.45625 30.93,32.57875 31.25125,32.57875 C31.57125,32.57875 31.89,32.45625 32.13375,32.21375 C32.6225,31.72625 32.62375,30.93625 32.13625,30.44625 L21.77,20.04875 Z" id="Path" stroke="#FFFFFF" fill="#FFFFFF"></path>
                </g>
            </g>
        </g>
    </g>
</svg>