<?xml version="1.0" encoding="UTF-8"?>
<svg width="24px" height="24px" viewBox="0 0 24 24" version="1.1" xmlns="http://www.w3.org/2000/svg" xmlns:xlink="http://www.w3.org/1999/xlink">
    <title>emoji</title>
    <g id="Guideline" stroke="none" stroke-width="1" fill="none" fill-rule="evenodd">
        <g id="icon" transform="translate(-234.000000, -166.000000)" fill-rule="nonzero">
            <g id="emoji" transform="translate(234.000000, 166.000000)">
                <rect id="Rectangle" fill="#505050" opacity="0" x="0" y="0" width="24" height="24"></rect>
                <path d="M11.97525,22.5 C6.18525,22.5 1.47525,17.79 1.47525,12 C1.47525,6.21 6.186,1.5 11.97525,1.5 C17.7645,1.5 22.47525,6.21 22.47525,12 C22.47525,17.79 17.76525,22.5 11.97525,22.5 Z M11.97525,3 C7.0125,3 2.97525,7.03725 2.97525,12 C2.97525,16.96275 7.0125,21 11.97525,21 C16.938,21 20.97525,16.96275 20.97525,12 C20.97525,7.03725 16.938,3 11.97525,3 Z M12,18.12525 C9.90975,18.12525 7.971,17.18025 6.68175,15.5325 C6.42675,15.20625 6.48375,14.73525 6.81,14.48025 C7.1355,14.2245 7.60725,14.2815 7.863,14.6085 C8.86575,15.89025 10.374,16.62525 12,16.62525 C13.64325,16.62525 15.16125,15.8775 16.164,14.57325 C16.41675,14.24475 16.887,14.1825 17.2155,14.43525 C17.544,14.688 17.60625,15.159 17.3535,15.48675 C16.06425,17.16375 14.11275,18.12525 12,18.12525 Z M8.625,12.075 C8.00325,12.075 7.5,11.57175 7.5,10.95 L7.5,9.45 C7.5,8.82825 8.00325,8.325 8.625,8.325 C9.24675,8.325 9.75,8.82825 9.75,9.45 L9.75,10.95 C9.75,11.571 9.246,12.075 8.625,12.075 Z M15.375,12.075 C14.754,12.075 14.25,11.57175 14.25,10.95 L14.25,9.45 C14.25,8.82825 14.754,8.325 15.375,8.325 C15.996,8.325 16.5,8.82825 16.5,9.45 L16.5,10.95 C16.5,11.571 15.996,12.075 15.375,12.075 Z" id="Shape" fill="#3E3E3E"></path>
            </g>
        </g>
    </g>
</svg>