<?xml version="1.0" encoding="UTF-8"?>
<svg width="24px" height="24px" viewBox="0 0 24 24" version="1.1" xmlns="http://www.w3.org/2000/svg" xmlns:xlink="http://www.w3.org/1999/xlink">
    <title>file</title>
    <g id="Guideline" stroke="none" stroke-width="1" fill="none" fill-rule="evenodd">
        <g id="icon" transform="translate(-336.000000, -138.000000)" fill-rule="nonzero">
            <g id="file" transform="translate(336.000000, 138.000000)">
                <rect id="Rectangle" fill="#000000" opacity="0" x="0" y="0" width="24" height="24"></rect>
                <path d="M21.6,10.55 C21.45,10.35 21.25,10.25 21,10.25 L20.75,10.25 L20.75,7.99999999 C20.75,7.05 19.95,6.25 19,6.25 L12.05,6.25 C11.95,6.25 11.9,6.20000002 11.85,6.15 L10.95,4.60000001 C10.65,4.10000002 10.05,3.75 9.45,3.75 L4.00000001,3.75 C3.05000002,3.75 2.25,4.54999999 2.25,5.50000001 L2.25,19.5 C2.25,19.65 2.29999999,19.8 2.4,19.95 C2.55,20.15 2.75,20.25 3,20.25 L18,20.25 C18.3,20.25 18.6,20.05 18.7,19.75 L21.7,11.25 C21.8,11 21.75,10.75 21.6,10.55 Z M4.00000001,5.25 L9.45,5.25 C9.55000001,5.25 9.6,5.29999999 9.64999999,5.35000001 L10.55,6.9 C10.85,7.39999999 11.45,7.75 12.05,7.75 L19,7.75 C19.15,7.75 19.25,7.85000002 19.25,7.99999999 L19.25,10.25 L6,10.25 C5.7,10.25 5.4,10.45 5.29999999,10.75 L3.75,15.1 L3.75,5.50000001 C3.75,5.35000001 3.85000001,5.25 4.00000001,5.25 Z M17.45,18.75 L4.05,18.75 L6.49999999,11.75 L19.9,11.75 L17.45,18.75 L17.45,18.75 Z" id="Shape" fill="#3E3E3E"></path>
            </g>
        </g>
    </g>
</svg>