<?xml version="1.0" encoding="UTF-8"?>
<svg width="24px" height="24px" viewBox="0 0 24 24" version="1.1" xmlns="http://www.w3.org/2000/svg" xmlns:xlink="http://www.w3.org/1999/xlink">
    <title>file-fill</title>
    <g id="Guideline" stroke="none" stroke-width="1" fill="none" fill-rule="evenodd">
        <g id="icon" transform="translate(-64.000000, -254.000000)" fill-rule="nonzero">
            <g id="file-fill" transform="translate(64.000000, 254.000000)">
                <rect id="Rectangle" fill="#000000" opacity="0" x="0" y="0" width="24" height="24"></rect>
                <path d="M20.78025,6.96975 L16.281,2.4705 C16.212,2.4015 16.13025,2.346 16.03875,2.3085 C15.94875,2.27025 15.8505,2.25 15.75,2.25 L5.25,2.25 C4.0095,2.25 3,3.2595 3,4.5 L3,19.5 C3,20.7405 4.0095,21.75 5.25,21.75 L18.75,21.75 C19.9905,21.75 21,20.7405 21,19.5 L21,7.5 C21,7.30125 20.92125,7.11 20.78025,6.96975 Z M14.25,15.75 C14.66475,15.75 15,16.08525 15,16.5 C15,16.91475 14.66475,17.25 14.25,17.25 L14.25,17.25 L6.75,17.25 C6.336,17.25 6,16.91475 6,16.5 C6,16.08525 6.336,15.75 6.75,15.75 L6.75,15.75 Z M14.25,11.25 C14.66475,11.25 15,11.586 15,12 C15,12.414 14.66475,12.75 14.25,12.75 L14.25,12.75 L6.75,12.75 C6.336,12.75 6,12.414 6,12 C6,11.586 6.336,11.25 6.75,11.25 L6.75,11.25 Z M11.25,6.75 C11.664,6.75 12,7.086 12,7.5 C12,7.914 11.664,8.25 11.25,8.25 L11.25,8.25 L6.75,8.25 C6.336,8.25 6,7.914 6,7.5 C6,7.086 6.336,6.75 6.75,6.75 L6.75,6.75 Z M16.5,4.8105 L19.1895,7.5 L16.5,7.5 L16.5,4.8105 Z" id="Shape" fill="#3E3E3E"></path>
            </g>
        </g>
    </g>
</svg>