<?xml version="1.0" encoding="UTF-8"?>
<svg width="24px" height="24px" viewBox="0 0 24 24" version="1.1" xmlns="http://www.w3.org/2000/svg" xmlns:xlink="http://www.w3.org/1999/xlink">
    <title>list</title>
    <g id="Guideline" stroke="none" stroke-width="1" fill="none" fill-rule="evenodd">
        <g id="icon" transform="translate(-64.000000, -166.000000)" fill-rule="nonzero">
            <g id="list" transform="translate(64.000000, 166.000000)">
                <rect id="Rectangle" fill="#666666" opacity="0" x="0" y="0" width="24" height="24"></rect>
                <path d="M19.25,5.99999999 C19.25,5.58578644 19.5857864,5.25 20,5.25 C20.4142136,5.25 20.75,5.58578644 20.75,5.99999999 L20.75,19.25 C20.75,20.76875 19.51875,22 18,22 L6,22 C4.48125,22 3.25000001,20.76875 3.25000001,19.25 L3.25000001,4.75000001 C3.25000001,3.23125001 4.48125,1.99999999 6,1.99999999 L20,1.99999999 C20.4142135,1.99999999 20.75,2.33578644 20.75,2.74999999 C20.75,3.16421355 20.4142135,3.49999999 20,3.49999999 L6,3.49999999 C5.66847939,3.49999999 5.35053699,3.63169605 5.11611652,3.86611652 C4.88169605,4.100537 4.75000001,4.41847939 4.75000001,4.75000001 L4.75000001,19.25 C4.75000001,19.5815206 4.88169605,19.899463 5.11611652,20.1338835 C5.35053699,20.368304 5.66847939,20.5 6,20.5 L18,20.5 C18.3315206,20.5 18.649463,20.368304 18.8838835,20.1338835 C19.118304,19.899463 19.25,19.5815206 19.25,19.25 L19.25,5.99999999 L19.25,5.99999999 Z M7.99999999,10.25 C7.58578643,10.25 7.24999999,9.91421355 7.24999999,9.49999999 C7.24999999,9.08578643 7.58578643,8.74999999 7.99999999,8.74999999 L16,8.74999999 C16.4142136,8.74999999 16.75,9.08578643 16.75,9.49999999 C16.75,9.91421355 16.4142136,10.25 16,10.25 L7.99999999,10.25 Z M7.99999999,14.25 C7.58578643,14.25 7.24999999,13.9142136 7.24999999,13.5 C7.24999999,13.0857864 7.58578643,12.75 7.99999999,12.75 L13,12.75 C13.4142136,12.75 13.75,13.0857864 13.75,13.5 C13.75,13.9142136 13.4142136,14.25 13,14.25 L7.99999999,14.25 Z" id="Shape" fill="#3E3E3E"></path>
            </g>
        </g>
    </g>
</svg>