<?xml version="1.0" encoding="UTF-8"?>
<svg width="24px" height="24px" viewBox="0 0 24 24" version="1.1" xmlns="http://www.w3.org/2000/svg" xmlns:xlink="http://www.w3.org/1999/xlink">
    <title>location</title>
    <g id="Guideline" stroke="none" stroke-width="1" fill="none" fill-rule="evenodd">
        <g id="icon" transform="translate(-370.000000, -166.000000)" fill-rule="nonzero">
            <g id="location" transform="translate(370.000000, 166.000000)">
                <rect id="Rectangle" fill="#000000" opacity="0" x="0" y="0" width="24" height="24"></rect>
                <path d="M12,14.25 C9.51825,14.25 7.5,12.23175 7.5,9.75 C7.5,7.26825 9.51825,5.25 12,5.25 C14.48175,5.25 16.5,7.26825 16.5,9.75 C16.5,12.23175 14.48175,14.25 12,14.25 Z M12,6.75 C10.3455,6.75 9,8.0955 9,9.75 C9,11.4045 10.3455,12.75 12,12.75 C13.6545,12.75 15,11.4045 15,9.75 C15,8.0955 13.6545,6.75 12,6.75 Z M12,22.5 C11.814,22.5 11.62725,22.431 11.4825,22.293 C11.18325,22.0065 11.172,21.53175 11.45775,21.2325 C13.48575,19.10625 18.75,12.8985 18.75,9.75 C18.75,6.0285 15.72225,3 12,3 C8.2785,3 5.25,6.0285 5.25,9.75 C5.25,11.52225 6.95025,14.58 10.03725,18.3615 C10.29975,18.68325 10.25175,19.15575 9.93075,19.41675 C9.60975,19.6785 9.1365,19.63125 8.8755,19.31025 C5.47425,15.14475 3.75,11.928 3.75,9.75 C3.75,5.20125 7.45125,1.5 12,1.5 C16.54875,1.5 20.25,5.20125 20.25,9.75 C20.25,14.14125 12.85725,21.93825 12.543,22.2675 C12.39525,22.422 12.198,22.5 12,22.5 Z" id="Shape" fill="#3E3E3E"></path>
            </g>
        </g>
    </g>
</svg>