<?xml version="1.0" encoding="UTF-8"?>
<svg width="32px" height="32px" viewBox="0 0 32 32" version="1.1" xmlns="http://www.w3.org/2000/svg" xmlns:xlink="http://www.w3.org/1999/xlink">
    <title>notification-fill-disabled</title>
    <g id="Guideline" stroke="none" stroke-width="1" fill="none" fill-rule="evenodd">
        <g id="icon" transform="translate(-72.000000, -446.000000)" fill-rule="nonzero">
            <g id="notification-fill-disabled" transform="translate(72.000000, 446.000000)">
                <rect id="Rectangle" fill="#000000" opacity="0" x="0" y="0" width="32" height="32"></rect>
                <path d="M16.451,28.877 C15.796,28.877 15.071,28.484 14.296,27.71 L8.586,22 L6,22 C4.346,22 3,20.654 3,19 L3,13 C3,11.346 4.346,10 6,10 L8.586,10 L14.293,4.293 C15.061,3.525 15.785,3.136 16.445,3.136 C17.162,3.136 18,3.625 18,5 L18,27 C18,28.386 17.165,28.877 16.451,28.877 Z M21.487,22.824 C21.285,22.824 21.081,22.763 20.904,22.636 C20.456,22.314 20.353,21.689 20.675,21.24 L21.071,20.698 C22.106,19.295 23,18.082 23,16 C23,13.843 22.208,12.796 21.205,11.471 C21.028,11.238 20.851,11.002 20.676,10.759 C20.354,10.311 20.456,9.686 20.905,9.363 C21.354,9.039 21.978,9.143 22.301,9.592 C22.465,9.821 22.634,10.044 22.8,10.264 C23.882,11.694 25,13.172 25,16 C25,18.739 23.769,20.41 22.683,21.885 L22.301,22.408 C22.105,22.68 21.799,22.824 21.487,22.824 Z M24.889,26.219 C24.655,26.219 24.419,26.137 24.23,25.971 C23.815,25.607 23.773,24.975 24.137,24.56 C26.144,22.271 28,19.652 28,16 C28,12.348 26.144,9.728 24.137,7.441 C23.773,7.025 23.815,6.394 24.23,6.029 C24.643,5.665 25.275,5.706 25.641,6.121 C27.796,8.58 30,11.675 30,16 C30,20.325 27.796,23.421 25.641,25.878 C25.442,26.104 25.166,26.219 24.889,26.219 Z" id="Shape" fill="#3E3E3E"></path>
            </g>
        </g>
    </g>
</svg>