<?xml version="1.0" encoding="UTF-8"?>
<svg width="24px" height="24px" viewBox="0 0 24 24" version="1.1" xmlns="http://www.w3.org/2000/svg" xmlns:xlink="http://www.w3.org/1999/xlink">
    <title>pause</title>
    <g id="å°ç¶²Guideline" stroke="none" stroke-width="1" fill="none" fill-rule="evenodd">
        <g id="icon" transform="translate(-64.000000, -254.000000)" fill-rule="nonzero">
            <g id="pause" transform="translate(64.000000, 254.000000)">
                <rect id="Rectangle" fill="#000000" opacity="0" x="0" y="0" width="24" height="24"></rect>
                <path d="M12,1.5 C6.2025,1.5 1.5,6.2025 1.5,12 C1.5,17.799 6.2025,22.5 12,22.5 C17.799,22.5 22.5,17.799 22.5,12 C22.5,6.2025 17.799,1.5 12,1.5 Z M10.5,14.8965 C10.5,15.4485 10.068,15.897 9.534,15.8955038 C9.003,15.897 8.571,15.4485 8.571,14.898 L8.571,8.9775 C8.571,8.4225 9.003,7.97698514 9.5355,7.97698514 C10.068,7.974 10.5,8.4255 10.5,8.976 L10.5,14.8965 Z M15.4275,14.8965 C15.4275,15.4485 14.9955,15.897 14.4615,15.8955038 C13.9305,15.897 13.5,15.4485 13.5,14.898 L13.5,8.9775 C13.5,8.4225 13.932,7.97698514 14.4645,7.97698514 C14.9955,7.974 15.429,8.4255 15.429,8.976 L15.429,14.8965 L15.4275,14.8965 Z" id="Shape" fill="#3E3E3E"></path>
            </g>
        </g>
    </g>
</svg>