<?xml version="1.0" encoding="UTF-8"?>
<svg width="32px" height="32px" viewBox="0 0 32 32" version="1.1" xmlns="http://www.w3.org/2000/svg" xmlns:xlink="http://www.w3.org/1999/xlink">
    <title>phone-fill-round-y</title>
    <g id="Guideline" stroke="none" stroke-width="1" fill="none" fill-rule="evenodd">
        <g id="icon" transform="translate(-72.000000, -342.000000)">
            <g id="phone-fill-round-y" transform="translate(72.000000, 342.000000)">
                <circle id="Oval" fill="#FFF1CF" cx="16" cy="16" r="16"></circle>
                <g id="电话" transform="translate(6.000000, 6.000000)" fill-rule="nonzero">
                    <rect id="Rectangle" fill="#000000" opacity="0" x="0" y="0" width="20" height="20"></rect>
                    <path d="M14.4964583,10.2864583 C16.59875,10.2864583 18.3020833,11.996875 18.3020833,14.1058333 L18.3020833,14.1666667 C18.3020833,16.1816667 16.474375,17.8854167 14.5833333,17.8854167 L13.6958333,17.8854167 C13.6794227,17.8854167 13.6630197,17.8847069 13.6466667,17.8833333 C10.6408333,17.63375 7.54770832,16.3183333 5.60145834,14.4870833 C3.304375,12.3258333 1.69791666,9.0125 1.69791666,5.93395834 C1.69791666,3.71125 3.34645832,2.11458334 5.50354166,2.11458334 C7.605625,2.11458334 9.30895832,3.825 9.30895834,5.93395834 C9.30895834,7.41895834 8.44604168,8.644375 7.12729166,9.23708334 C7.57291673,9.95511134 8.10850817,10.6132237 8.72104166,11.1954167 C9.42979166,11.8683333 10.2160417,12.4129167 11.0404167,12.7933333 C11.5541667,11.305625 12.88,10.2864583 14.4966667,10.2864583 L14.4964583,10.2864583 Z" id="Path" fill="#3E3E3E"></path>
                </g>
            </g>
        </g>
    </g>
</svg>