<?xml version="1.0" encoding="UTF-8"?>
<svg width="24px" height="24px" viewBox="0 0 24 24" version="1.1" xmlns="http://www.w3.org/2000/svg" xmlns:xlink="http://www.w3.org/1999/xlink">
    <title>Photo</title>
    <g id="Guideline" stroke="none" stroke-width="1" fill="none" fill-rule="evenodd">
        <g id="icon" transform="translate(-166.000000, -166.000000)" fill="#3E3E3E" fill-rule="nonzero">
            <g id="Photo" transform="translate(166.000000, 166.000000)">
                <rect id="Rectangle" opacity="0" x="0" y="0" width="24" height="24"></rect>
                <path d="M6.315,6 L6.861,4.23325001 C7.08761979,3.5000124 7.76554062,3 8.53300001,3 L15.467,3 C16.2344594,3 16.9123802,3.5000124 17.139,4.23325001 L17.685,6 L19.25,6 C20.76875,6 22,7.23124999 22,8.74999999 L22,18.75 C22,20.26875 20.76875,21.5 19.25,21.5 L4.75000001,21.5 C3.23125001,21.5 1.99999999,20.26875 1.99999999,18.75 L1.99999999,8.74999999 C1.99999999,7.23124999 3.23124998,6 4.75000001,6 L6.315,6 Z M6.86824999,7.5 L4.75000001,7.5 C4.41847939,7.5 4.100537,7.63169604 3.86611652,7.86611651 C3.63169605,8.10053699 3.49999999,8.41847938 3.49999999,8.74999999 L3.49999999,18.75 C3.49999999,19.0815206 3.63169605,19.399463 3.86611652,19.6338835 C4.100537,19.868304 4.41847939,20 4.75000001,20 L19.25,20 C19.5815206,20 19.899463,19.868304 20.1338835,19.6338835 C20.368304,19.399463 20.5,19.0815206 20.5,18.75 L20.5,8.74999999 C20.5,8.41847938 20.368304,8.10053699 20.1338835,7.86611651 C19.899463,7.63169604 19.5815206,7.5 19.25,7.5 L17.13175,7.5 C16.802875,7.49997996 16.5123778,7.28570535 16.41525,6.97150001 L15.70575,4.67625 C15.673413,4.5715113 15.5766169,4.5 15.467,4.5 L8.53300001,4.5 C8.42338307,4.5 8.32658699,4.5715113 8.29425,4.67625 L7.58475,6.97125 C7.48771177,7.28555431 7.19719317,7.49994608 6.86824999,7.5 Z M12,17 C9.92899999,17 8.25,15.321 8.25,13.25 C8.25,11.179 9.92899999,9.49999999 12,9.49999999 C14.071,9.49999999 15.75,11.179 15.75,13.25 C15.75,15.321 14.071,17 12,17 Z M12,15.5 C13.2426407,15.5 14.25,14.4926407 14.25,13.25 C14.25,12.0073593 13.2426407,11 12,11 C10.7573593,11 9.75,12.0073593 9.75,13.25 C9.75,14.4926407 10.7573593,15.5 12,15.5 Z" id="Shape"></path>
            </g>
        </g>
    </g>
</svg>