<?xml version="1.0" encoding="UTF-8"?>
<svg width="24px" height="24px" viewBox="0 0 24 24" version="1.1" xmlns="http://www.w3.org/2000/svg" xmlns:xlink="http://www.w3.org/1999/xlink">
    <title>pic</title>
    <g id="Guideline" stroke="none" stroke-width="1" fill="none" fill-rule="evenodd">
        <g id="icon" transform="translate(-200.000000, -166.000000)" fill-rule="nonzero">
            <g id="pic" transform="translate(200.000000, 166.000000)">
                <rect id="Rectangle" fill="#505050" opacity="0" x="0" y="0" width="24" height="24"></rect>
                <path d="M6,9 C6,9.82842712 6.67157288,10.5 7.5,10.5 C8.32842712,10.5 9,9.82842712 9,9 C9,8.17157288 8.32842712,7.5 7.5,7.5 C6.67157288,7.5 6,8.17157288 6,9 Z M19.7505,21 L4.2495,21 C2.73375,21 1.5,19.76625 1.5,18.2505 L1.5,5.7495 C1.5,4.23375 2.73375,3 4.2495,3 L19.7505,3 C21.26625,3 22.5,4.23375 22.5,5.7495 L22.5,18.2505 C22.5,19.76625 21.26625,21 19.7505,21 Z M4.2495,4.5 C3.561,4.5 3,5.061 3,5.7495 L3,18.2505 C3,18.93975 3.561,19.5 4.2495,19.5 L19.7505,19.5 C20.43975,19.5 21,18.93975 21,18.2505 L21,5.7495 C21,5.061 20.43975,4.5 19.7505,4.5 L4.2495,4.5 Z M5.25,18.02325 C5.1765,18.02325 5.1015,18.012 5.02725,17.98875 C4.632,17.86575 4.41075,17.4465 4.53375,17.05125 C4.58925,16.87275 5.94375,12.672 8.82675,12.747 C9.64725,12.76725 10.33425,12.97425 10.99875,13.1745 C11.85225,13.431 12.59025,13.65225 13.56825,13.49625 C14.0475,13.419 14.2455,12.9375 14.58375,11.856 C15.03,10.43025 15.70425,8.27625 18.67725,8.27625 C19.092,8.27625 19.42725,8.61225 19.42725,9.02625 C19.42725,9.44025 19.092,9.77625 18.67725,9.77625 C16.89675,9.77625 16.50525,10.737 16.01475,12.3045 C15.675,13.392 15.2505,14.74575 13.80525,14.97675 C12.486,15.18675 11.46675,14.88 10.566,14.61075 C9.9705,14.4315 9.40725,14.262 8.78775,14.247 C8.7765,14.24625 8.76525,14.24625 8.754,14.24625 C7.3005,14.24625 6.249,16.587 5.96475,17.496 C5.86575,17.817 5.5695,18.02325 5.25,18.02325 Z" id="Shape" fill="#3E3E3E"></path>
            </g>
        </g>
    </g>
</svg>