<?xml version="1.0" encoding="UTF-8"?>
<svg width="24px" height="24px" viewBox="0 0 24 24" version="1.1" xmlns="http://www.w3.org/2000/svg" xmlns:xlink="http://www.w3.org/1999/xlink">
    <title>reload time</title>
    <g id="小網Guideline" stroke="none" stroke-width="1" fill="none" fill-rule="evenodd">
        <g id="icon" transform="translate(-404.000000, -166.000000)" fill-rule="nonzero">
            <g id="reload-time-copy" transform="translate(404.000000, 166.000000)">
                <rect id="Rectangle" fill="#000000" opacity="0" x="0" y="0" width="24" height="24"></rect>
                <path d="M12.2953851,2.02187226 C15.4524771,2.01958052 18.2669781,3.48738288 20.0951785,5.77692586 L20.0951785,5.77692586 L18.851147,6.75051574 C18.6596795,6.51139388 18.4531628,6.28341225 18.2347732,6.06288307 C17.4638806,5.29199046 16.564885,4.68479207 15.5664042,4.26263162 C14.5321614,3.82379011 13.4338795,3.603125 12.3,3.603125 C11.1660538,3.603125 10.0653427,3.82383061 9.03605741,4.26258172 C8.03745878,4.68479207 7.13846318,5.29199046 6.36767927,6.06277454 C5.59437985,6.83370187 4.98950009,7.73272273 4.56731912,8.73125209 C4.12848141,9.76548583 3.9078125,10.8661296 3.9078125,12 C3.9078125,13.1337803 4.12845234,14.2343399 4.56266031,15.2664717 C4.98721755,16.2650114 5.59203959,17.1639297 6.36288307,17.9347732 C7.13377568,18.7056658 8.03277128,19.3128642 9.03125209,19.7350246 C10.0654948,20.1738661 11.1637767,20.3945312 12.2976563,20.3945312 C13.4314682,20.3945312 14.5296953,20.1715459 15.5639426,19.7350745 C16.5625412,19.3128642 17.4615368,18.7056658 18.2323207,17.9348817 C18.9899219,17.1796045 19.5858719,16.3013817 20.0067907,15.3269817 L20.0067907,15.3269817 L21.50921,15.3187267 C20.85455,17.2979729 19.6308059,18.9524967 18.0438081,20.1172767 C16.4317966,21.3004155 14.4451151,21.978125 12.3,21.978125 C9.56437833,21.978125 7.08607019,20.8764304 5.28415565,19.0921242 C3.48040367,17.3059984 2.35441737,14.8358741 2.32655749,12.1021238 C2.29870997,9.32085296 3.40099624,6.80120551 5.20537029,4.97667036 C7.0095324,3.15234954 9.51556734,2.0230338 12.2953851,2.02187226 Z M12.5648437,6.4984375 C12.5889063,6.4984375 12.6107176,6.50838892 12.6265549,6.5242263 C12.6423923,6.54006369 12.6523438,6.561875 12.6523438,6.5859375 L12.6523438,6.5859375 L12.6523438,12.4378179 L16.0374917,14.885262 C16.0563597,14.8983648 16.0678049,14.9180668 16.0710257,14.939286 C16.0744667,14.9619559 16.0686166,14.9860942 16.0537345,15.0064886 L16.0537345,15.0064886 L15.3829946,15.9211384 C15.3691163,15.9403545 15.3488578,15.951856 15.3272551,15.955135 C15.3044682,15.9585937 15.2803269,15.9530633 15.2605335,15.9387698 L15.2605335,15.9387698 L11.3854676,13.1092517 C11.3625387,13.0928739 11.35,13.0664849 11.35,13.0382813 L11.35,13.0382813 L11.35,6.5859375 Z M21.4455951,5.00455804 C21.4618873,5.00272645 21.4781592,5.00602896 21.4925688,5.01306624 C21.5073406,5.02028036 21.5202709,5.03147351 21.5292205,5.0458422 C21.5375194,5.05916624 21.5421875,5.07519174 21.5421887,5.0924734 L21.5421887,5.0924734 L21.5234375,8.878125 C21.5234375,8.90560569 21.5098705,8.92931952 21.490044,8.94474012 C21.469651,8.96060135 21.4423739,8.96798631 21.4151347,8.96144972 L21.4151347,8.96144972 L17.7403082,8.06383601 C17.7231058,8.0596016 17.7087116,8.05135679 17.6978384,8.04019177 C17.6862436,8.0282857 17.6786622,8.01331372 17.6752917,7.99747261 L17.6752917,7.99747261 L21.4026775,5.02310662 C21.4159629,5.0123761 21.4306869,5.00623404 21.4455951,5.00455804 Z" id="Shape" stroke="#3E3E3E" stroke-width="0.2" fill="#3E3E3E"></path>
            </g>
        </g>
    </g>
</svg>