<?xml version="1.0" encoding="UTF-8"?>
<svg width="16px" height="16px" viewBox="0 0 16 16" version="1.1" xmlns="http://www.w3.org/2000/svg" xmlns:xlink="http://www.w3.org/1999/xlink">
    <title>round-fill_close</title>
    <g id="Guideline" stroke="none" stroke-width="1" fill="none" fill-rule="evenodd">
        <g id="icon" transform="translate(-132.000000, -258.000000)" fill-rule="nonzero">
            <g id="round-fill_close" transform="translate(132.000000, 258.000000)">
                <rect id="Rectangle" fill="#000000" opacity="0" x="0" y="0" width="16" height="16"></rect>
                <path d="M8,1 C11.86,1 15,4.14 15,8 C15,11.86 11.86,15 8,15 C4.14,15 1,11.86 1,8 C1,4.14 4.14,1 8,1 Z M8.704,8.0215 L10.866,5.883 C11.0625,5.689 11.064,5.3725 10.87,5.176 C10.676,4.9795 10.359,4.978 10.163,5.172 L7.998,7.313 L5.866,5.1745 C5.6705,4.979 5.3545,4.978 5.159,5.1735 C4.9635,5.3685 4.963,5.685 5.158,5.8805 L7.287,8.016 L5.1405,10.1395 C4.944,10.334 4.9425,10.65 5.1365,10.8465 C5.2345,10.9455 5.363,10.995 5.492,10.995 C5.619,10.995 5.746,10.9465 5.8435,10.8505 L7.993,8.7245 L10.16,10.8985 C10.2575,10.9965 10.3855,11.0455 10.514,11.0455 C10.642,11.0455 10.7695,10.9965 10.867,10.8995 C11.0625,10.7045 11.063,10.3885 10.868,10.1925 L8.704,8.0215 Z" id="Shape" fill="#8B8B8B"></path>
            </g>
        </g>
    </g>
</svg>