<?xml version="1.0" encoding="UTF-8"?>
<svg width="48px" height="48px" viewBox="0 0 48 48" version="1.1" xmlns="http://www.w3.org/2000/svg" xmlns:xlink="http://www.w3.org/1999/xlink">
    <title>User-round</title>
    <g id="Guideline" stroke="none" stroke-width="1" fill="none" fill-rule="evenodd">
        <g id="icon" transform="translate(-146.000000, -498.000000)">
            <g id="User-round" transform="translate(146.000000, 498.000000)">
                <circle id="Oval" fill="#FFB400" cx="24" cy="24" r="24"></circle>
                <g id="User" transform="translate(8.000000, 8.000000)" fill-rule="nonzero">
                    <rect id="Rectangle" fill="#000000" opacity="0" x="0" y="0" width="32" height="32"></rect>
                    <path d="M19.0266667,25.0053333 C19.0266667,27.1393998 20.1651775,29.1113586 22.0133333,30.1783918 C23.8614891,31.2454251 26.1385109,31.2454251 27.9866667,30.1783918 C29.8348225,29.1113586 30.9733333,27.1393998 30.9733333,25.0053333 C30.9733333,21.7063524 28.2989809,19.032 25,19.032 C21.7010191,19.032 19.0266667,21.7063524 19.0266667,25.0053333 L19.0266667,25.0053333 Z" id="Path" fill="#FFDD8A"></path>
                    <path d="M16,16.7893333 C12.7573333,16.7893333 10.112,14.144 10.112,10.9013333 C10.112,7.65866669 12.7573333,5.01333334 16,5.01333334 C19.2426667,5.01333334 21.888,7.65866669 21.888,10.9013333 C21.888,14.144 19.2426667,16.7893333 16,16.7893333 Z M16,6.29333334 C13.4613333,6.29333334 11.392,8.36266669 11.392,10.9013333 C11.392,13.44 13.4613333,15.5093333 16,15.5093333 C18.5386667,15.5093333 20.608,13.44 20.608,10.9013333 C20.608,8.36266669 18.5386667,6.29333334 16,6.29333334 Z M26.0266667,26.9866667 C25.7493333,26.9866667 25.4933333,26.816 25.408,26.5386667 C24.1066667,22.4213333 20.3306667,19.648 16,19.648 C11.6693333,19.648 7.89333334,22.4213333 6.57066666,26.5386667 C6.464,26.88 6.10133331,27.0506667 5.76,26.9653333 C5.41866666,26.8586667 5.22666666,26.496 5.33333334,26.1546667 C6.80533334,21.504 11.0933333,18.368 15.9786667,18.368 C20.864,18.368 25.152,21.504 26.624,26.1546667 C26.7306667,26.496 26.5386667,26.8586667 26.1973333,26.9653333 C26.1546667,26.9866667 26.0906667,26.9866667 26.0266667,26.9866667 Z" id="Shape" stroke="#FFFFFF" stroke-width="0.5" fill="#FFFFFF"></path>
                </g>
            </g>
        </g>
    </g>
</svg>