<?xml version="1.0" encoding="UTF-8"?>
<svg width="24px" height="24px" viewBox="0 0 24 24" version="1.1" xmlns="http://www.w3.org/2000/svg" xmlns:xlink="http://www.w3.org/1999/xlink">
    <title>voice</title>
    <g id="Guideline" stroke="none" stroke-width="1" fill="none" fill-rule="evenodd">
        <g id="icon" transform="translate(-268.000000, -166.000000)" fill-rule="nonzero">
            <g id="voice" transform="translate(268.000000, 166.000000)">
                <rect id="Rectangle" fill="#505050" opacity="0" x="0" y="0" width="24" height="24"></rect>
                <path d="M11.9985,16.5405 C9.51675,16.5405 7.4985,14.52225 7.4985,12.0405 L7.4985,6.04575 C7.4985,3.564 9.51675,1.54575 11.9985,1.54575 C14.48025,1.54575 16.4985,3.564 16.4985,6.04575 L16.4985,12.0405 C16.4985,14.5215 14.48025,16.5405 11.9985,16.5405 Z M11.9985,3.04575 C10.344,3.04575 8.9985,4.39125 8.9985,6.04575 L8.9985,12.0405 C8.9985,13.695 10.344,15.0405 11.9985,15.0405 C13.653,15.0405 14.9985,13.695 14.9985,12.0405 L14.9985,6.04575 C14.9985,4.39125 13.653,3.04575 11.9985,3.04575 Z M20.25,11.24475 L20.25,8.25 C20.25,7.836 19.91475,7.5 19.5,7.5 C19.08525,7.5 18.75,7.836 18.75,8.25 L18.75,11.24475 C18.75,14.9985 15.72225,18.0525 12,18.0525 C8.2785,18.0525 5.25,14.9985 5.25,11.24475 L5.25,8.25 C5.25,7.836 4.914,7.5 4.5,7.5 C4.086,7.5 3.75,7.836 3.75,8.25 L3.75,11.24475 C3.75,15.5715 7.0515,19.131 11.25,19.51425 L11.25,21 L6.75,21 C6.336,21 6,21.33525 6,21.75 C6,22.16475 6.336,22.5 6.75,22.5 L17.25,22.5 C17.66475,22.5 18,22.16475 18,21.75 C18,21.33525 17.66475,21 17.25,21 L12.75,21 L12.75,19.515 C16.9485,19.131 20.25,15.5715 20.25,11.24475 Z" id="Shape" fill="#3E3E3E"></path>
            </g>
        </g>
    </g>
</svg>